<svg width="193" height="43" viewBox="0 0 193 43" fill="none" xmlns="http://www.w3.org/2000/svg">
<rect x="10" y="6.5" width="14" height="20" rx="1" fill="#3D9D7D"/>
<rect x="26" y="18.5" width="14" height="18" rx="1" fill="#3D9D7D"/>
<rect x="26" y="6.5" width="14" height="10" rx="1" fill="#3D9D7D"/>
<rect x="10" y="28.5" width="14" height="8" rx="1" fill="#3D9D7D"/>
<path d="M57.272 29.264C55.944 29.264 54.784 29.016 53.792 28.52C52.816 28.024 52.056 27.312 51.512 26.384C50.968 25.44 50.696 24.336 50.696 23.072C50.696 22.112 50.848 21.256 51.152 20.504C51.456 19.736 51.896 19.088 52.472 18.56C53.064 18.032 53.76 17.632 54.56 17.36C55.376 17.072 56.28 16.928 57.272 16.928C57.736 16.928 58.224 16.976 58.736 17.072C59.248 17.152 59.776 17.312 60.32 17.552C60.704 17.696 60.968 17.92 61.112 18.224C61.272 18.512 61.336 18.824 61.304 19.16C61.288 19.496 61.192 19.8 61.016 20.072C60.856 20.344 60.624 20.528 60.32 20.624C60.032 20.72 59.704 20.68 59.336 20.504C59.08 20.376 58.808 20.288 58.52 20.24C58.248 20.176 57.984 20.144 57.728 20.144C57.296 20.144 56.912 20.208 56.576 20.336C56.256 20.464 55.984 20.656 55.76 20.912C55.536 21.152 55.36 21.456 55.232 21.824C55.12 22.192 55.064 22.608 55.064 23.072C55.064 24 55.296 24.728 55.76 25.256C56.224 25.784 56.88 26.048 57.728 26.048C57.984 26.048 58.248 26.024 58.52 25.976C58.792 25.912 59.064 25.816 59.336 25.688C59.704 25.512 60.032 25.48 60.32 25.592C60.608 25.688 60.84 25.872 61.016 26.144C61.192 26.416 61.288 26.72 61.304 27.056C61.32 27.376 61.248 27.688 61.088 27.992C60.928 28.28 60.656 28.496 60.272 28.64C59.744 28.88 59.224 29.04 58.712 29.12C58.216 29.216 57.736 29.264 57.272 29.264ZM68.6146 29.264C67.3026 29.264 66.1586 29.016 65.1826 28.52C64.2066 28.024 63.4466 27.312 62.9026 26.384C62.3586 25.456 62.0866 24.36 62.0866 23.096C62.0866 22.136 62.2386 21.28 62.5426 20.528C62.8466 19.76 63.2866 19.112 63.8626 18.584C64.4386 18.04 65.1266 17.632 65.9266 17.36C66.7266 17.072 67.6226 16.928 68.6146 16.928C69.9266 16.928 71.0706 17.176 72.0466 17.672C73.0226 18.168 73.7746 18.88 74.3026 19.808C74.8466 20.72 75.1186 21.816 75.1186 23.096C75.1186 24.04 74.9666 24.896 74.6626 25.664C74.3586 26.432 73.9186 27.088 73.3426 27.632C72.7826 28.16 72.0946 28.568 71.2786 28.856C70.4786 29.128 69.5906 29.264 68.6146 29.264ZM68.6146 26.12C69.0466 26.12 69.4306 26.016 69.7666 25.808C70.1026 25.584 70.3586 25.256 70.5346 24.824C70.7266 24.376 70.8226 23.8 70.8226 23.096C70.8226 22.024 70.6146 21.256 70.1986 20.792C69.7826 20.312 69.2546 20.072 68.6146 20.072C68.1826 20.072 67.7986 20.176 67.4626 20.384C67.1266 20.592 66.8626 20.92 66.6706 21.368C66.4786 21.8 66.3826 22.376 66.3826 23.096C66.3826 24.152 66.5906 24.92 67.0066 25.4C67.4226 25.88 67.9586 26.12 68.6146 26.12ZM81.5641 29.264C80.0281 29.264 78.8921 28.856 78.1561 28.04C77.4361 27.208 77.0761 25.96 77.0761 24.296V14.024C77.0761 13.32 77.2601 12.784 77.6281 12.416C77.9961 12.048 78.5161 11.864 79.1881 11.864C79.8761 11.864 80.4041 12.048 80.7721 12.416C81.1561 12.784 81.3481 13.32 81.3481 14.024V24.152C81.3481 24.744 81.4601 25.176 81.6841 25.448C81.9241 25.72 82.2281 25.856 82.5961 25.856C82.7081 25.856 82.8201 25.848 82.9321 25.832C83.0601 25.8 83.1961 25.776 83.3401 25.76C83.6121 25.76 83.8121 25.864 83.9401 26.072C84.0841 26.28 84.1561 26.704 84.1561 27.344C84.1561 27.904 84.0441 28.328 83.8201 28.616C83.5961 28.888 83.2521 29.064 82.7881 29.144C82.6601 29.16 82.4761 29.184 82.2361 29.216C81.9961 29.248 81.7721 29.264 81.5641 29.264ZM89.9079 29.264C88.3719 29.264 87.2359 28.856 86.4999 28.04C85.7799 27.208 85.4199 25.96 85.4199 24.296V14.024C85.4199 13.32 85.6039 12.784 85.9719 12.416C86.3399 12.048 86.8599 11.864 87.5319 11.864C88.2199 11.864 88.7479 12.048 89.1159 12.416C89.4999 12.784 89.6919 13.32 89.6919 14.024V24.152C89.6919 24.744 89.8039 25.176 90.0279 25.448C90.2679 25.72 90.5719 25.856 90.9399 25.856C91.0519 25.856 91.1639 25.848 91.2759 25.832C91.4039 25.8 91.5399 25.776 91.6839 25.76C91.9559 25.76 92.1559 25.864 92.2839 26.072C92.4279 26.28 92.4999 26.704 92.4999 27.344C92.4999 27.904 92.3879 28.328 92.1639 28.616C91.9399 28.888 91.5959 29.064 91.1319 29.144C91.0039 29.16 90.8199 29.184 90.5799 29.216C90.3399 29.248 90.1159 29.264 89.9079 29.264ZM97.8676 29.264C96.9556 29.264 96.1476 29.096 95.4436 28.76C94.7556 28.424 94.2116 27.968 93.8116 27.392C93.4276 26.8 93.2356 26.128 93.2356 25.376C93.2356 24.512 93.4596 23.832 93.9076 23.336C94.3556 22.84 95.0756 22.488 96.0676 22.28C97.0596 22.056 98.3796 21.944 100.028 21.944H101.348V23.96H100.028C99.4036 23.96 98.8836 24.008 98.4676 24.104C98.0676 24.184 97.7716 24.32 97.5796 24.512C97.3876 24.688 97.2916 24.92 97.2916 25.208C97.2916 25.576 97.4196 25.88 97.6756 26.12C97.9476 26.36 98.3316 26.48 98.8276 26.48C99.2276 26.48 99.5796 26.392 99.8836 26.216C100.204 26.04 100.46 25.8 100.652 25.496C100.844 25.176 100.94 24.808 100.94 24.392V21.608C100.94 21.032 100.788 20.624 100.484 20.384C100.196 20.144 99.6916 20.024 98.9716 20.024C98.5876 20.024 98.1556 20.072 97.6756 20.168C97.1956 20.248 96.6596 20.4 96.0676 20.624C95.6356 20.784 95.2676 20.808 94.9636 20.696C94.6596 20.584 94.4196 20.392 94.2436 20.12C94.0836 19.848 94.0036 19.552 94.0036 19.232C94.0196 18.912 94.1236 18.608 94.3156 18.32C94.5236 18.032 94.8356 17.808 95.2516 17.648C96.0196 17.36 96.7236 17.168 97.3636 17.072C98.0196 16.976 98.6196 16.928 99.1636 16.928C100.476 16.928 101.556 17.12 102.404 17.504C103.268 17.872 103.908 18.448 104.324 19.232C104.756 20 104.972 20.992 104.972 22.208V27.056C104.972 27.76 104.804 28.296 104.468 28.664C104.132 29.032 103.644 29.216 103.004 29.216C102.348 29.216 101.844 29.032 101.492 28.664C101.156 28.296 100.988 27.76 100.988 27.056V26.432L101.132 26.768C101.052 27.28 100.868 27.72 100.58 28.088C100.292 28.456 99.9156 28.744 99.4516 28.952C98.9876 29.16 98.4596 29.264 97.8676 29.264ZM115.18 29.264C114.268 29.264 113.452 29.048 112.732 28.616C112.028 28.168 111.564 27.584 111.34 26.864L111.604 25.88V27.056C111.604 27.76 111.42 28.296 111.052 28.664C110.7 29.032 110.188 29.216 109.516 29.216C108.828 29.216 108.3 29.032 107.932 28.664C107.58 28.296 107.404 27.76 107.404 27.056V14.024C107.404 13.32 107.588 12.784 107.956 12.416C108.324 12.048 108.844 11.864 109.516 11.864C110.204 11.864 110.732 12.048 111.1 12.416C111.484 12.784 111.676 13.32 111.676 14.024V19.16H111.388C111.628 18.504 112.1 17.968 112.804 17.552C113.508 17.136 114.3 16.928 115.18 16.928C116.204 16.928 117.1 17.176 117.868 17.672C118.652 18.168 119.26 18.872 119.692 19.784C120.124 20.696 120.34 21.8 120.34 23.096C120.34 24.36 120.124 25.456 119.692 26.384C119.26 27.312 118.652 28.024 117.868 28.52C117.1 29.016 116.204 29.264 115.18 29.264ZM113.836 26.12C114.268 26.12 114.644 26.016 114.964 25.808C115.3 25.584 115.564 25.256 115.756 24.824C115.948 24.376 116.044 23.8 116.044 23.096C116.044 22.024 115.836 21.256 115.42 20.792C115.004 20.312 114.476 20.072 113.836 20.072C113.404 20.072 113.02 20.176 112.684 20.384C112.348 20.592 112.084 20.92 111.892 21.368C111.7 21.8 111.604 22.376 111.604 23.096C111.604 24.152 111.812 24.92 112.228 25.4C112.644 25.88 113.18 26.12 113.836 26.12ZM128.263 29.264C126.951 29.264 125.807 29.016 124.831 28.52C123.855 28.024 123.095 27.312 122.551 26.384C122.007 25.456 121.735 24.36 121.735 23.096C121.735 22.136 121.887 21.28 122.191 20.528C122.495 19.76 122.935 19.112 123.511 18.584C124.087 18.04 124.775 17.632 125.575 17.36C126.375 17.072 127.271 16.928 128.263 16.928C129.575 16.928 130.719 17.176 131.695 17.672C132.671 18.168 133.423 18.88 133.951 19.808C134.495 20.72 134.767 21.816 134.767 23.096C134.767 24.04 134.615 24.896 134.311 25.664C134.007 26.432 133.567 27.088 132.991 27.632C132.431 28.16 131.743 28.568 130.927 28.856C130.127 29.128 129.239 29.264 128.263 29.264ZM128.263 26.12C128.695 26.12 129.079 26.016 129.415 25.808C129.751 25.584 130.007 25.256 130.183 24.824C130.375 24.376 130.471 23.8 130.471 23.096C130.471 22.024 130.263 21.256 129.847 20.792C129.431 20.312 128.903 20.072 128.263 20.072C127.831 20.072 127.447 20.176 127.111 20.384C126.775 20.592 126.511 20.92 126.319 21.368C126.127 21.8 126.031 22.376 126.031 23.096C126.031 24.152 126.239 24.92 126.655 25.4C127.071 25.88 127.607 26.12 128.263 26.12ZM138.909 29.216C138.205 29.216 137.661 29.032 137.277 28.664C136.909 28.296 136.725 27.76 136.725 27.056V19.112C136.725 18.424 136.901 17.896 137.253 17.528C137.621 17.16 138.141 16.976 138.813 16.976C139.485 16.976 139.997 17.16 140.349 17.528C140.701 17.896 140.877 18.424 140.877 19.112V20.096H140.637C140.797 19.136 141.205 18.376 141.861 17.816C142.533 17.256 143.365 16.96 144.357 16.928C144.821 16.912 145.165 17.032 145.389 17.288C145.629 17.528 145.757 17.984 145.773 18.656C145.773 19.232 145.653 19.688 145.413 20.024C145.173 20.36 144.717 20.56 144.045 20.624L143.493 20.672C142.645 20.752 142.029 20.992 141.645 21.392C141.261 21.776 141.069 22.352 141.069 23.12V27.056C141.069 27.76 140.885 28.296 140.517 28.664C140.149 29.032 139.613 29.216 138.909 29.216ZM151.118 29.264C150.206 29.264 149.398 29.096 148.694 28.76C148.006 28.424 147.462 27.968 147.062 27.392C146.678 26.8 146.486 26.128 146.486 25.376C146.486 24.512 146.71 23.832 147.158 23.336C147.606 22.84 148.326 22.488 149.318 22.28C150.31 22.056 151.63 21.944 153.278 21.944H154.598V23.96H153.278C152.654 23.96 152.134 24.008 151.718 24.104C151.318 24.184 151.022 24.32 150.83 24.512C150.638 24.688 150.542 24.92 150.542 25.208C150.542 25.576 150.67 25.88 150.926 26.12C151.198 26.36 151.582 26.48 152.078 26.48C152.478 26.48 152.83 26.392 153.134 26.216C153.454 26.04 153.71 25.8 153.902 25.496C154.094 25.176 154.19 24.808 154.19 24.392V21.608C154.19 21.032 154.038 20.624 153.734 20.384C153.446 20.144 152.942 20.024 152.222 20.024C151.838 20.024 151.406 20.072 150.926 20.168C150.446 20.248 149.91 20.4 149.318 20.624C148.886 20.784 148.518 20.808 148.214 20.696C147.91 20.584 147.67 20.392 147.494 20.12C147.334 19.848 147.254 19.552 147.254 19.232C147.27 18.912 147.374 18.608 147.566 18.32C147.774 18.032 148.086 17.808 148.502 17.648C149.27 17.36 149.974 17.168 150.614 17.072C151.27 16.976 151.87 16.928 152.414 16.928C153.726 16.928 154.806 17.12 155.654 17.504C156.518 17.872 157.158 18.448 157.574 19.232C158.006 20 158.222 20.992 158.222 22.208V27.056C158.222 27.76 158.054 28.296 157.718 28.664C157.382 29.032 156.894 29.216 156.254 29.216C155.598 29.216 155.094 29.032 154.742 28.664C154.406 28.296 154.238 27.76 154.238 27.056V26.432L154.382 26.768C154.302 27.28 154.118 27.72 153.83 28.088C153.542 28.456 153.166 28.744 152.702 28.952C152.238 29.16 151.71 29.264 151.118 29.264ZM166.846 29.264C165.646 29.264 164.654 29.08 163.87 28.712C163.102 28.344 162.526 27.792 162.142 27.056C161.758 26.304 161.566 25.368 161.566 24.248V20.336H160.75C160.238 20.336 159.838 20.2 159.55 19.928C159.278 19.656 159.142 19.264 159.142 18.752C159.142 18.24 159.278 17.856 159.55 17.6C159.838 17.328 160.238 17.192 160.75 17.192H161.566V15.704C161.566 15 161.75 14.464 162.118 14.096C162.486 13.728 163.014 13.544 163.702 13.544C164.39 13.544 164.918 13.728 165.286 14.096C165.654 14.464 165.838 15 165.838 15.704V17.192H167.806C168.334 17.192 168.734 17.328 169.006 17.6C169.294 17.856 169.438 18.24 169.438 18.752C169.438 19.264 169.294 19.656 169.006 19.928C168.734 20.2 168.334 20.336 167.806 20.336H165.838V24.104C165.838 24.696 165.974 25.136 166.246 25.424C166.534 25.696 166.982 25.832 167.59 25.832C167.814 25.832 168.03 25.808 168.238 25.76C168.446 25.712 168.638 25.688 168.814 25.688C169.07 25.672 169.278 25.752 169.438 25.928C169.598 26.088 169.678 26.464 169.678 27.056C169.678 27.536 169.606 27.944 169.462 28.28C169.318 28.6 169.062 28.832 168.694 28.976C168.47 29.056 168.166 29.12 167.782 29.168C167.398 29.232 167.086 29.264 166.846 29.264ZM177.188 29.264C175.748 29.264 174.5 29.016 173.444 28.52C172.404 28.008 171.604 27.288 171.044 26.36C170.484 25.432 170.204 24.336 170.204 23.072C170.204 21.856 170.468 20.792 170.996 19.88C171.54 18.952 172.276 18.232 173.204 17.72C174.148 17.192 175.22 16.928 176.42 16.928C177.3 16.928 178.1 17.072 178.82 17.36C179.54 17.632 180.156 18.04 180.668 18.584C181.18 19.112 181.564 19.752 181.82 20.504C182.092 21.256 182.228 22.096 182.228 23.024C182.228 23.344 182.14 23.584 181.964 23.744C181.788 23.888 181.508 23.96 181.124 23.96H173.78V21.944H179.108L178.724 22.256C178.724 21.664 178.644 21.184 178.484 20.816C178.324 20.448 178.084 20.168 177.764 19.976C177.46 19.784 177.076 19.688 176.612 19.688C176.116 19.688 175.684 19.808 175.316 20.048C174.964 20.272 174.692 20.608 174.5 21.056C174.308 21.504 174.212 22.064 174.212 22.736V22.952C174.212 24.088 174.46 24.904 174.956 25.4C175.468 25.88 176.252 26.12 177.308 26.12C177.66 26.12 178.06 26.08 178.508 26C178.972 25.904 179.412 25.776 179.828 25.616C180.244 25.456 180.604 25.432 180.908 25.544C181.212 25.64 181.444 25.816 181.604 26.072C181.78 26.312 181.876 26.592 181.892 26.912C181.908 27.216 181.836 27.52 181.676 27.824C181.516 28.112 181.252 28.336 180.884 28.496C180.324 28.752 179.724 28.944 179.084 29.072C178.46 29.2 177.828 29.264 177.188 29.264Z" fill="#4B5260"/>
</svg>
