<svg width="173" height="43" viewBox="0 0 173 43" fill="none" xmlns="http://www.w3.org/2000/svg">
<rect y="6.5" width="14" height="20" rx="1" fill="#3D9D7D"/>
<rect x="16" y="18.5" width="14" height="18" rx="1" fill="#3D9D7D"/>
<rect x="16" y="6.5" width="14" height="10" rx="1" fill="#3D9D7D"/>
<rect y="28.5" width="14" height="8" rx="1" fill="#3D9D7D"/>
<path d="M47.272 29.264C45.944 29.264 44.784 29.016 43.792 28.52C42.816 28.024 42.056 27.312 41.512 26.384C40.968 25.44 40.696 24.336 40.696 23.072C40.696 22.112 40.848 21.256 41.152 20.504C41.456 19.736 41.896 19.088 42.472 18.56C43.064 18.032 43.76 17.632 44.56 17.36C45.376 17.072 46.28 16.928 47.272 16.928C47.736 16.928 48.224 16.976 48.736 17.072C49.248 17.152 49.776 17.312 50.32 17.552C50.704 17.696 50.968 17.92 51.112 18.224C51.272 18.512 51.336 18.824 51.304 19.16C51.288 19.496 51.192 19.8 51.016 20.072C50.856 20.344 50.624 20.528 50.32 20.624C50.032 20.72 49.704 20.68 49.336 20.504C49.08 20.376 48.808 20.288 48.52 20.24C48.248 20.176 47.984 20.144 47.728 20.144C47.296 20.144 46.912 20.208 46.576 20.336C46.256 20.464 45.984 20.656 45.76 20.912C45.536 21.152 45.36 21.456 45.232 21.824C45.12 22.192 45.064 22.608 45.064 23.072C45.064 24 45.296 24.728 45.76 25.256C46.224 25.784 46.88 26.048 47.728 26.048C47.984 26.048 48.248 26.024 48.52 25.976C48.792 25.912 49.064 25.816 49.336 25.688C49.704 25.512 50.032 25.48 50.32 25.592C50.608 25.688 50.84 25.872 51.016 26.144C51.192 26.416 51.288 26.72 51.304 27.056C51.32 27.376 51.248 27.688 51.088 27.992C50.928 28.28 50.656 28.496 50.272 28.64C49.744 28.88 49.224 29.04 48.712 29.12C48.216 29.216 47.736 29.264 47.272 29.264ZM58.6146 29.264C57.3026 29.264 56.1586 29.016 55.1826 28.52C54.2066 28.024 53.4466 27.312 52.9026 26.384C52.3586 25.456 52.0866 24.36 52.0866 23.096C52.0866 22.136 52.2386 21.28 52.5426 20.528C52.8466 19.76 53.2866 19.112 53.8626 18.584C54.4386 18.04 55.1266 17.632 55.9266 17.36C56.7266 17.072 57.6226 16.928 58.6146 16.928C59.9266 16.928 61.0706 17.176 62.0466 17.672C63.0226 18.168 63.7746 18.88 64.3026 19.808C64.8466 20.72 65.1186 21.816 65.1186 23.096C65.1186 24.04 64.9666 24.896 64.6626 25.664C64.3586 26.432 63.9186 27.088 63.3426 27.632C62.7826 28.16 62.0946 28.568 61.2786 28.856C60.4786 29.128 59.5906 29.264 58.6146 29.264ZM58.6146 26.12C59.0466 26.12 59.4306 26.016 59.7666 25.808C60.1026 25.584 60.3586 25.256 60.5346 24.824C60.7266 24.376 60.8226 23.8 60.8226 23.096C60.8226 22.024 60.6146 21.256 60.1986 20.792C59.7826 20.312 59.2546 20.072 58.6146 20.072C58.1826 20.072 57.7986 20.176 57.4626 20.384C57.1266 20.592 56.8626 20.92 56.6706 21.368C56.4786 21.8 56.3826 22.376 56.3826 23.096C56.3826 24.152 56.5906 24.92 57.0066 25.4C57.4226 25.88 57.9586 26.12 58.6146 26.12ZM71.5641 29.264C70.0281 29.264 68.8921 28.856 68.1561 28.04C67.4361 27.208 67.0761 25.96 67.0761 24.296V14.024C67.0761 13.32 67.2601 12.784 67.6281 12.416C67.9961 12.048 68.5161 11.864 69.1881 11.864C69.8761 11.864 70.4041 12.048 70.7721 12.416C71.1561 12.784 71.3481 13.32 71.3481 14.024V24.152C71.3481 24.744 71.4601 25.176 71.6841 25.448C71.9241 25.72 72.2281 25.856 72.5961 25.856C72.7081 25.856 72.8201 25.848 72.9321 25.832C73.0601 25.8 73.1961 25.776 73.3401 25.76C73.6121 25.76 73.8121 25.864 73.9401 26.072C74.0841 26.28 74.1561 26.704 74.1561 27.344C74.1561 27.904 74.0441 28.328 73.8201 28.616C73.5961 28.888 73.2521 29.064 72.7881 29.144C72.6601 29.16 72.4761 29.184 72.2361 29.216C71.9961 29.248 71.7721 29.264 71.5641 29.264ZM79.9079 29.264C78.3719 29.264 77.2359 28.856 76.4999 28.04C75.7799 27.208 75.4199 25.96 75.4199 24.296V14.024C75.4199 13.32 75.6039 12.784 75.9719 12.416C76.3399 12.048 76.8599 11.864 77.5319 11.864C78.2199 11.864 78.7479 12.048 79.1159 12.416C79.4999 12.784 79.6919 13.32 79.6919 14.024V24.152C79.6919 24.744 79.8039 25.176 80.0279 25.448C80.2679 25.72 80.5719 25.856 80.9399 25.856C81.0519 25.856 81.1639 25.848 81.2759 25.832C81.4039 25.8 81.5399 25.776 81.6839 25.76C81.9559 25.76 82.1559 25.864 82.2839 26.072C82.4279 26.28 82.4999 26.704 82.4999 27.344C82.4999 27.904 82.3879 28.328 82.1639 28.616C81.9399 28.888 81.5959 29.064 81.1319 29.144C81.0039 29.16 80.8199 29.184 80.5799 29.216C80.3399 29.248 80.1159 29.264 79.9079 29.264ZM87.8676 29.264C86.9556 29.264 86.1476 29.096 85.4436 28.76C84.7556 28.424 84.2116 27.968 83.8116 27.392C83.4276 26.8 83.2356 26.128 83.2356 25.376C83.2356 24.512 83.4596 23.832 83.9076 23.336C84.3556 22.84 85.0756 22.488 86.0676 22.28C87.0596 22.056 88.3796 21.944 90.0276 21.944H91.3476V23.96H90.0276C89.4036 23.96 88.8836 24.008 88.4676 24.104C88.0676 24.184 87.7716 24.32 87.5796 24.512C87.3876 24.688 87.2916 24.92 87.2916 25.208C87.2916 25.576 87.4196 25.88 87.6756 26.12C87.9476 26.36 88.3316 26.48 88.8276 26.48C89.2276 26.48 89.5796 26.392 89.8836 26.216C90.2036 26.04 90.4596 25.8 90.6516 25.496C90.8436 25.176 90.9396 24.808 90.9396 24.392V21.608C90.9396 21.032 90.7876 20.624 90.4836 20.384C90.1956 20.144 89.6916 20.024 88.9716 20.024C88.5876 20.024 88.1556 20.072 87.6756 20.168C87.1956 20.248 86.6596 20.4 86.0676 20.624C85.6356 20.784 85.2676 20.808 84.9636 20.696C84.6596 20.584 84.4196 20.392 84.2436 20.12C84.0836 19.848 84.0036 19.552 84.0036 19.232C84.0196 18.912 84.1236 18.608 84.3156 18.32C84.5236 18.032 84.8356 17.808 85.2516 17.648C86.0196 17.36 86.7236 17.168 87.3636 17.072C88.0196 16.976 88.6196 16.928 89.1636 16.928C90.4756 16.928 91.5556 17.12 92.4036 17.504C93.2676 17.872 93.9076 18.448 94.3236 19.232C94.7556 20 94.9716 20.992 94.9716 22.208V27.056C94.9716 27.76 94.8036 28.296 94.4676 28.664C94.1316 29.032 93.6436 29.216 93.0036 29.216C92.3476 29.216 91.8436 29.032 91.4916 28.664C91.1556 28.296 90.9876 27.76 90.9876 27.056V26.432L91.1316 26.768C91.0516 27.28 90.8676 27.72 90.5796 28.088C90.2916 28.456 89.9156 28.744 89.4516 28.952C88.9876 29.16 88.4596 29.264 87.8676 29.264ZM105.18 29.264C104.268 29.264 103.452 29.048 102.732 28.616C102.028 28.168 101.564 27.584 101.34 26.864L101.604 25.88V27.056C101.604 27.76 101.42 28.296 101.052 28.664C100.7 29.032 100.188 29.216 99.5163 29.216C98.8283 29.216 98.3003 29.032 97.9323 28.664C97.5803 28.296 97.4043 27.76 97.4043 27.056V14.024C97.4043 13.32 97.5883 12.784 97.9563 12.416C98.3243 12.048 98.8443 11.864 99.5163 11.864C100.204 11.864 100.732 12.048 101.1 12.416C101.484 12.784 101.676 13.32 101.676 14.024V19.16H101.388C101.628 18.504 102.1 17.968 102.804 17.552C103.508 17.136 104.3 16.928 105.18 16.928C106.204 16.928 107.1 17.176 107.868 17.672C108.652 18.168 109.26 18.872 109.692 19.784C110.124 20.696 110.34 21.8 110.34 23.096C110.34 24.36 110.124 25.456 109.692 26.384C109.26 27.312 108.652 28.024 107.868 28.52C107.1 29.016 106.204 29.264 105.18 29.264ZM103.836 26.12C104.268 26.12 104.644 26.016 104.964 25.808C105.3 25.584 105.564 25.256 105.756 24.824C105.948 24.376 106.044 23.8 106.044 23.096C106.044 22.024 105.836 21.256 105.42 20.792C105.004 20.312 104.476 20.072 103.836 20.072C103.404 20.072 103.02 20.176 102.684 20.384C102.348 20.592 102.084 20.92 101.892 21.368C101.7 21.8 101.604 22.376 101.604 23.096C101.604 24.152 101.812 24.92 102.228 25.4C102.644 25.88 103.18 26.12 103.836 26.12ZM118.263 29.264C116.951 29.264 115.807 29.016 114.831 28.52C113.855 28.024 113.095 27.312 112.551 26.384C112.007 25.456 111.735 24.36 111.735 23.096C111.735 22.136 111.887 21.28 112.191 20.528C112.495 19.76 112.935 19.112 113.511 18.584C114.087 18.04 114.775 17.632 115.575 17.36C116.375 17.072 117.271 16.928 118.263 16.928C119.575 16.928 120.719 17.176 121.695 17.672C122.671 18.168 123.423 18.88 123.951 19.808C124.495 20.72 124.767 21.816 124.767 23.096C124.767 24.04 124.615 24.896 124.311 25.664C124.007 26.432 123.567 27.088 122.991 27.632C122.431 28.16 121.743 28.568 120.927 28.856C120.127 29.128 119.239 29.264 118.263 29.264ZM118.263 26.12C118.695 26.12 119.079 26.016 119.415 25.808C119.751 25.584 120.007 25.256 120.183 24.824C120.375 24.376 120.471 23.8 120.471 23.096C120.471 22.024 120.263 21.256 119.847 20.792C119.431 20.312 118.903 20.072 118.263 20.072C117.831 20.072 117.447 20.176 117.111 20.384C116.775 20.592 116.511 20.92 116.319 21.368C116.127 21.8 116.031 22.376 116.031 23.096C116.031 24.152 116.239 24.92 116.655 25.4C117.071 25.88 117.607 26.12 118.263 26.12ZM128.909 29.216C128.205 29.216 127.661 29.032 127.277 28.664C126.909 28.296 126.725 27.76 126.725 27.056V19.112C126.725 18.424 126.901 17.896 127.253 17.528C127.621 17.16 128.141 16.976 128.813 16.976C129.485 16.976 129.997 17.16 130.349 17.528C130.701 17.896 130.877 18.424 130.877 19.112V20.096H130.637C130.797 19.136 131.205 18.376 131.861 17.816C132.533 17.256 133.365 16.96 134.357 16.928C134.821 16.912 135.165 17.032 135.389 17.288C135.629 17.528 135.757 17.984 135.773 18.656C135.773 19.232 135.653 19.688 135.413 20.024C135.173 20.36 134.717 20.56 134.045 20.624L133.493 20.672C132.645 20.752 132.029 20.992 131.645 21.392C131.261 21.776 131.069 22.352 131.069 23.12V27.056C131.069 27.76 130.885 28.296 130.517 28.664C130.149 29.032 129.613 29.216 128.909 29.216ZM141.118 29.264C140.206 29.264 139.398 29.096 138.694 28.76C138.006 28.424 137.462 27.968 137.062 27.392C136.678 26.8 136.486 26.128 136.486 25.376C136.486 24.512 136.71 23.832 137.158 23.336C137.606 22.84 138.326 22.488 139.318 22.28C140.31 22.056 141.63 21.944 143.278 21.944H144.598V23.96H143.278C142.654 23.96 142.134 24.008 141.718 24.104C141.318 24.184 141.022 24.32 140.83 24.512C140.638 24.688 140.542 24.92 140.542 25.208C140.542 25.576 140.67 25.88 140.926 26.12C141.198 26.36 141.582 26.48 142.078 26.48C142.478 26.48 142.83 26.392 143.134 26.216C143.454 26.04 143.71 25.8 143.902 25.496C144.094 25.176 144.19 24.808 144.19 24.392V21.608C144.19 21.032 144.038 20.624 143.734 20.384C143.446 20.144 142.942 20.024 142.222 20.024C141.838 20.024 141.406 20.072 140.926 20.168C140.446 20.248 139.91 20.4 139.318 20.624C138.886 20.784 138.518 20.808 138.214 20.696C137.91 20.584 137.67 20.392 137.494 20.12C137.334 19.848 137.254 19.552 137.254 19.232C137.27 18.912 137.374 18.608 137.566 18.32C137.774 18.032 138.086 17.808 138.502 17.648C139.27 17.36 139.974 17.168 140.614 17.072C141.27 16.976 141.87 16.928 142.414 16.928C143.726 16.928 144.806 17.12 145.654 17.504C146.518 17.872 147.158 18.448 147.574 19.232C148.006 20 148.222 20.992 148.222 22.208V27.056C148.222 27.76 148.054 28.296 147.718 28.664C147.382 29.032 146.894 29.216 146.254 29.216C145.598 29.216 145.094 29.032 144.742 28.664C144.406 28.296 144.238 27.76 144.238 27.056V26.432L144.382 26.768C144.302 27.28 144.118 27.72 143.83 28.088C143.542 28.456 143.166 28.744 142.702 28.952C142.238 29.16 141.71 29.264 141.118 29.264ZM156.846 29.264C155.646 29.264 154.654 29.08 153.87 28.712C153.102 28.344 152.526 27.792 152.142 27.056C151.758 26.304 151.566 25.368 151.566 24.248V20.336H150.75C150.238 20.336 149.838 20.2 149.55 19.928C149.278 19.656 149.142 19.264 149.142 18.752C149.142 18.24 149.278 17.856 149.55 17.6C149.838 17.328 150.238 17.192 150.75 17.192H151.566V15.704C151.566 15 151.75 14.464 152.118 14.096C152.486 13.728 153.014 13.544 153.702 13.544C154.39 13.544 154.918 13.728 155.286 14.096C155.654 14.464 155.838 15 155.838 15.704V17.192H157.806C158.334 17.192 158.734 17.328 159.006 17.6C159.294 17.856 159.438 18.24 159.438 18.752C159.438 19.264 159.294 19.656 159.006 19.928C158.734 20.2 158.334 20.336 157.806 20.336H155.838V24.104C155.838 24.696 155.974 25.136 156.246 25.424C156.534 25.696 156.982 25.832 157.59 25.832C157.814 25.832 158.03 25.808 158.238 25.76C158.446 25.712 158.638 25.688 158.814 25.688C159.07 25.672 159.278 25.752 159.438 25.928C159.598 26.088 159.678 26.464 159.678 27.056C159.678 27.536 159.606 27.944 159.462 28.28C159.318 28.6 159.062 28.832 158.694 28.976C158.47 29.056 158.166 29.12 157.782 29.168C157.398 29.232 157.086 29.264 156.846 29.264ZM167.188 29.264C165.748 29.264 164.5 29.016 163.444 28.52C162.404 28.008 161.604 27.288 161.044 26.36C160.484 25.432 160.204 24.336 160.204 23.072C160.204 21.856 160.468 20.792 160.996 19.88C161.54 18.952 162.276 18.232 163.204 17.72C164.148 17.192 165.22 16.928 166.42 16.928C167.3 16.928 168.1 17.072 168.82 17.36C169.54 17.632 170.156 18.04 170.668 18.584C171.18 19.112 171.564 19.752 171.82 20.504C172.092 21.256 172.228 22.096 172.228 23.024C172.228 23.344 172.14 23.584 171.964 23.744C171.788 23.888 171.508 23.96 171.124 23.96H163.78V21.944H169.108L168.724 22.256C168.724 21.664 168.644 21.184 168.484 20.816C168.324 20.448 168.084 20.168 167.764 19.976C167.46 19.784 167.076 19.688 166.612 19.688C166.116 19.688 165.684 19.808 165.316 20.048C164.964 20.272 164.692 20.608 164.5 21.056C164.308 21.504 164.212 22.064 164.212 22.736V22.952C164.212 24.088 164.46 24.904 164.956 25.4C165.468 25.88 166.252 26.12 167.308 26.12C167.66 26.12 168.06 26.08 168.508 26C168.972 25.904 169.412 25.776 169.828 25.616C170.244 25.456 170.604 25.432 170.908 25.544C171.212 25.64 171.444 25.816 171.604 26.072C171.78 26.312 171.876 26.592 171.892 26.912C171.908 27.216 171.836 27.52 171.676 27.824C171.516 28.112 171.252 28.336 170.884 28.496C170.324 28.752 169.724 28.944 169.084 29.072C168.46 29.2 167.828 29.264 167.188 29.264Z" fill="#3B383E"/>
</svg>
